<svg width="15" height="14" viewBox="0 0 15 14" fill="none" xmlns="http://www.w3.org/2000/svg">
<path d="M0.75 2.23103C0.75 1.80173 0.902026 1.44757 1.20608 1.16857C1.51013 0.8895 1.90537 0.75 2.3919 0.75C2.86972 0.75 3.25628 0.8874 3.55163 1.16212C3.85568 1.44547 4.0077 1.81463 4.0077 2.26973C4.0077 2.68185 3.86002 3.02527 3.56467 3.3C3.26062 3.58335 2.86102 3.72502 2.3658 3.72502H2.35283C1.875 3.72502 1.48845 3.58335 1.19303 3.3C0.897675 3.01665 0.75 2.66033 0.75 2.23103ZM0.919425 13.5V4.89698H3.81225V13.5H0.919425ZM5.41508 13.5H8.3079V8.69617C8.3079 8.39565 8.3427 8.1639 8.41215 8.00077C8.5338 7.7088 8.71837 7.46197 8.96595 7.26022C9.21352 7.05847 9.5241 6.9576 9.89767 6.9576C10.8706 6.9576 11.3572 7.60582 11.3572 8.90227V13.5H14.25V8.5674C14.25 7.29667 13.9459 6.33292 13.3378 5.67615C12.7297 5.0193 11.9262 4.69087 10.9271 4.69087C9.80647 4.69087 8.9334 5.16743 8.3079 6.12045V6.14617H8.29485L8.3079 6.12045V4.89698H5.41508C5.4324 5.1717 5.4411 6.02602 5.4411 7.4598C5.4411 8.89365 5.4324 10.907 5.41508 13.5Z" fill="black"/>
</svg>
