<svg width="15" height="15" viewBox="0 0 15 15" fill="none" xmlns="http://www.w3.org/2000/svg">
<path d="M11.5118 2.595C11.3339 2.595 11.1599 2.6478 11.0118 2.74665C10.8638 2.84558 10.7485 2.98612 10.6803 3.1506C10.6122 3.31507 10.5944 3.49597 10.6292 3.67057C10.6639 3.84517 10.7495 4.00552 10.8755 4.13137C11.0013 4.2573 11.1617 4.34295 11.3363 4.37768C11.5109 4.4124 11.6918 4.39462 11.8562 4.32652C12.0207 4.25835 12.1613 4.143 12.2602 3.99502C12.359 3.84697 12.4118 3.67297 12.4118 3.495C12.4118 3.25627 12.317 3.02737 12.1482 2.85862C11.9795 2.6898 11.7506 2.595 11.5118 2.595ZM14.9618 4.41C14.9473 3.78772 14.8307 3.17205 14.6168 2.5875C14.4261 2.08733 14.1293 1.63447 13.7468 1.26C13.3754 0.87555 12.9215 0.58065 12.4193 0.3975C11.8364 0.17715 11.2199 0.0578996 10.5968 0.0449996C9.80183 -3.99537e-07 9.54683 0 7.50683 0C5.46684 0 5.21183 -3.99537e-07 4.41683 0.0449996C3.79373 0.0578996 3.17731 0.17715 2.59434 0.3975C2.09311 0.58245 1.63951 0.8772 1.26684 1.26C0.882386 1.6314 0.587486 2.0853 0.404336 2.5875C0.183986 3.17048 0.0647355 3.7869 0.0518355 4.41C0.00683554 5.205 0.00683594 5.46 0.00683594 7.5C0.00683594 9.54 0.00683554 9.795 0.0518355 10.59C0.0647355 11.2131 0.183986 11.8295 0.404336 12.4125C0.587486 12.9147 0.882386 13.3686 1.26684 13.74C1.63951 14.1228 2.09311 14.4175 2.59434 14.6025C3.17731 14.8228 3.79373 14.9421 4.41683 14.955C5.21183 15 5.46684 15 7.50683 15C9.54683 15 9.80183 15 10.5968 14.955C11.2199 14.9421 11.8364 14.8228 12.4193 14.6025C12.9215 14.4193 13.3754 14.1244 13.7468 13.74C14.131 13.3669 14.4281 12.9136 14.6168 12.4125C14.8307 11.8279 14.9473 11.2123 14.9618 10.59C14.9618 9.795 15.0068 9.54 15.0068 7.5C15.0068 5.46 15.0068 5.205 14.9618 4.41ZM13.6118 10.5C13.6064 10.9761 13.5202 11.4478 13.3568 11.895C13.2371 12.2214 13.0448 12.5163 12.7943 12.7575C12.551 13.0054 12.2567 13.1973 11.9318 13.32C11.4846 13.4833 11.0129 13.5695 10.5368 13.575C9.78683 13.6125 9.50934 13.62 7.53684 13.62C5.56434 13.62 5.28684 13.62 4.53684 13.575C4.04251 13.5842 3.55029 13.5082 3.08184 13.35C2.77119 13.2211 2.49039 13.0296 2.25684 12.7875C2.00791 12.5465 1.81794 12.2514 1.70184 11.925C1.51876 11.4714 1.41714 10.9889 1.40184 10.5C1.40184 9.75 1.35684 9.4725 1.35684 7.5C1.35684 5.5275 1.35684 5.25 1.40184 4.5C1.40521 4.01332 1.49409 3.53092 1.66434 3.075C1.79633 2.75842 1.99906 2.47627 2.25684 2.25C2.48469 1.99215 2.76631 1.78733 3.08184 1.65C3.53904 1.485 4.02084 1.39883 4.50683 1.395C5.25683 1.395 5.53434 1.35 7.50683 1.35C9.47933 1.35 9.75683 1.35 10.5068 1.395C10.9829 1.40048 11.4546 1.48665 11.9018 1.65C12.2426 1.77653 12.5486 1.9821 12.7943 2.25C13.0401 2.4804 13.2322 2.76202 13.3568 3.075C13.5236 3.53167 13.6098 4.01385 13.6118 4.5C13.6493 5.25 13.6568 5.5275 13.6568 7.5C13.6568 9.4725 13.6493 9.75 13.6118 10.5ZM7.50683 3.6525C6.74618 3.654 6.00309 3.88088 5.37136 4.30455C4.73956 4.72822 4.24763 5.32965 3.95753 6.03285C3.66751 6.73597 3.59236 7.50937 3.74168 8.25517C3.89101 9.00105 4.25799 9.68587 4.79641 10.2232C5.33476 10.7605 6.02033 11.1262 6.76651 11.2741C7.51261 11.422 8.28586 11.3453 8.98846 11.0539C9.69106 10.7625 10.2915 10.2693 10.7139 9.63675C11.1364 9.0042 11.3618 8.26065 11.3618 7.5C11.3628 6.99382 11.2637 6.49245 11.0702 6.02475C10.8768 5.55697 10.5928 5.1321 10.2345 4.77457C9.87624 4.41697 9.45076 4.13377 8.98269 3.94117C8.51453 3.74865 8.01301 3.65055 7.50683 3.6525ZM7.50683 9.9975C7.01288 9.9975 6.53003 9.85102 6.11933 9.5766C5.70856 9.30217 5.38846 8.9121 5.19946 8.45572C5.01039 7.99942 4.96096 7.49722 5.05733 7.01272C5.15371 6.5283 5.39153 6.08325 5.74081 5.73397C6.09009 5.3847 6.53513 5.14687 7.01956 5.0505C7.50406 4.95412 8.00626 5.00355 8.46256 5.19262C8.91893 5.38162 9.30901 5.70172 9.58343 6.1125C9.85786 6.5232 10.0043 7.00605 10.0043 7.5C10.0043 7.82797 9.93976 8.15272 9.81421 8.45572C9.68873 8.7588 9.50476 9.03405 9.27286 9.26602C9.04088 9.49792 8.76563 9.6819 8.46256 9.80737C8.15956 9.93292 7.83481 9.9975 7.50683 9.9975Z" fill="black"/>
</svg>
